<svg width="22" height="26" viewBox="0 0 22 26" fill="none" xmlns="http://www.w3.org/2000/svg">
<path d="M5.45387 25.5022C4.91982 25.1613 4.44649 24.7401 4.0521 24.2548C3.61826 23.7538 3.2163 23.2282 2.8484 22.6809C1.98506 21.4674 1.30801 20.1412 0.838015 18.7429C0.273413 17.1187 0 15.5618 0 14.0391C0 12.3385 0.383455 10.854 1.13344 9.60656C1.68939 8.63156 2.50678 7.81679 3.50104 7.24654C4.46459 6.67235 5.57173 6.35812 6.70581 6.33697C7.10281 6.33697 7.53028 6.39219 7.98399 6.49777C8.30989 6.58629 8.70689 6.72597 9.19192 6.89977C9.809 7.12797 10.1484 7.26766 10.2636 7.30176C10.625 7.42846 10.9289 7.48368 11.1676 7.48368C11.3487 7.48368 11.6044 7.42846 11.8947 7.344C12.0581 7.28877 12.3662 7.19132 12.8072 7.01021C13.244 6.85754 13.5877 6.72678 13.8611 6.62933C14.2801 6.51076 14.6856 6.40112 15.047 6.3459C15.4755 6.28109 15.9104 6.26392 16.343 6.29474C17.0926 6.34175 17.831 6.49416 18.5345 6.74709C19.6849 7.19132 20.6152 7.88487 21.3076 8.87078C21.0149 9.04384 20.7402 9.24345 20.4873 9.46688C19.9368 9.93513 19.4679 10.4848 19.0983 11.0952C18.6152 11.9293 18.3647 12.8689 18.3711 13.8231C18.3889 14.995 18.7021 16.0272 19.3192 16.9197C19.7729 17.5812 20.3625 18.1468 21.0519 18.5821C21.4049 18.8103 21.7088 18.967 22 19.0726C21.8637 19.4787 21.7181 19.8717 21.5463 20.2616C21.1566 21.1357 20.6842 21.9738 20.1352 22.7653C19.6459 23.4467 19.2625 23.9543 18.9713 24.2921C18.5176 24.8078 18.0808 25.2017 17.6398 25.4762C17.1548 25.7848 16.5817 25.9496 15.9993 25.9496C15.6049 25.9642 15.2106 25.9184 14.8312 25.814C14.5053 25.7084 14.1828 25.5939 13.8653 25.4632C13.5353 25.3178 13.195 25.1948 12.847 25.0953C11.9867 24.8833 11.0848 24.8819 10.2238 25.0912C9.8708 25.1887 9.53136 25.3024 9.19615 25.4421C8.72466 25.6321 8.41147 25.7596 8.23032 25.814C7.86887 25.9155 7.49388 25.9789 7.11466 26C6.52805 26 5.98122 25.8392 5.43948 25.5135L5.45387 25.5022ZM13.1907 5.51185C12.4238 5.87974 11.6916 6.03648 10.9644 5.98532C10.8502 5.28284 10.9644 4.56411 11.2683 3.77717C11.527 3.11047 11.9093 2.49417 12.3967 1.95802C12.9114 1.39361 13.5359 0.930994 14.2352 0.596096C14.9801 0.228205 15.6903 0.0292363 16.3692 0C16.4573 0.73578 16.3692 1.45938 16.0873 2.24145C15.8265 2.93279 15.4449 3.57652 14.959 4.14506C14.463 4.71023 13.8543 5.17465 13.1687 5.51104L13.1907 5.51185Z" fill="white"/>
</svg>
